<svg width="22" height="23" viewBox="0 0 22 23" fill="none" xmlns="http://www.w3.org/2000/svg">
<g clip-path="url(#clip0_77:80)">
<path d="M11 3.66892C10.6205 3.66892 10.3125 3.36092 10.3125 2.98142V1.1875C10.3125 0.808 10.6205 0.5 11 0.5C11.3795 0.5 11.6875 0.808 11.6875 1.1875V2.98142C11.6875 3.36092 11.3795 3.66892 11 3.66892Z" fill="white"/>
<path d="M17.0232 6.16413C16.8472 6.16413 16.6712 6.09721 16.5374 5.96246C16.2688 5.69388 16.2688 5.25846 16.5374 4.98988L17.806 3.72121C18.0746 3.45263 18.51 3.45263 18.7786 3.72121C19.0472 3.9898 19.0472 4.42521 18.7786 4.69379L17.51 5.96246C17.3752 6.09629 17.2001 6.16413 17.0232 6.16413V6.16413Z" fill="white"/>
<path d="M21.3125 12.1875H19.5195C19.14 12.1875 18.832 11.8795 18.832 11.5C18.832 11.1205 19.14 10.8125 19.5195 10.8125H21.3125C21.692 10.8125 22 11.1205 22 11.5C22 11.8795 21.692 12.1875 21.3125 12.1875Z" fill="white"/>
<path d="M18.2919 19.4795C18.1159 19.4795 17.9399 19.4126 17.806 19.2779L16.5374 18.0092C16.2688 17.7406 16.2688 17.3052 16.5374 17.0366C16.806 16.7681 17.2414 16.7681 17.51 17.0366L18.7786 18.3053C19.0472 18.5739 19.0472 19.0093 18.7786 19.2779C18.6439 19.4126 18.4679 19.4795 18.2919 19.4795Z" fill="white"/>
<path d="M11 22.5C10.6205 22.5 10.3125 22.192 10.3125 21.8125V20.0186C10.3125 19.6391 10.6205 19.3311 11 19.3311C11.3795 19.3311 11.6875 19.6391 11.6875 20.0186V21.8125C11.6875 22.192 11.3795 22.5 11 22.5Z" fill="white"/>
<path d="M3.70802 19.4795C3.53202 19.4795 3.35602 19.4126 3.22219 19.2779C2.95361 19.0093 2.95361 18.5739 3.22219 18.3053L4.49085 17.0366C4.75943 16.7681 5.19485 16.7681 5.46343 17.0366C5.73202 17.3052 5.73202 17.7406 5.46343 18.0092L4.19477 19.2779C4.06002 19.4126 3.88402 19.4795 3.70802 19.4795V19.4795Z" fill="white"/>
<path d="M2.4805 12.1875H0.6875C0.308 12.1875 0 11.8795 0 11.5C0 11.1205 0.308 10.8125 0.6875 10.8125H2.4805C2.86 10.8125 3.168 11.1205 3.168 11.5C3.168 11.8795 2.86 12.1875 2.4805 12.1875Z" fill="white"/>
<path d="M4.97668 6.16413C4.80068 6.16413 4.62469 6.09721 4.49085 5.96246L3.22219 4.69379C2.95361 4.42521 2.95361 3.9898 3.22219 3.72121C3.49077 3.45263 3.92619 3.45263 4.19477 3.72121L5.46343 4.98988C5.73202 5.25846 5.73202 5.69388 5.46343 5.96246C5.32777 6.09629 5.15268 6.16413 4.97668 6.16413V6.16413Z" fill="white"/>
<path d="M9.92105 18.8333C9.84221 18.8333 9.76246 18.8196 9.68546 18.7921C9.38205 18.6812 9.19688 18.375 9.23996 18.056L9.98705 12.4167H7.10413C6.84563 12.4167 6.60821 12.2709 6.49088 12.0399C6.37355 11.8089 6.39646 11.5312 6.54955 11.3231L11.5912 4.44808C11.7791 4.19049 12.1201 4.09516 12.4125 4.22074C12.7059 4.34449 12.8764 4.65341 12.8241 4.96691L12.0413 9.66666H14.8958C15.147 9.66666 15.378 9.80324 15.499 10.0242C15.619 10.2442 15.6099 10.5127 15.4751 10.7245L10.5004 18.5162C10.3711 18.7187 10.1502 18.8333 9.92105 18.8333V18.8333Z" fill="white"/>
</g>
<defs>
<clipPath id="clip0_77:80">
<rect width="22" height="22" fill="white" transform="translate(0 0.5)"/>
</clipPath>
</defs>
</svg>
