<svg width="41" height="40" viewBox="0 0 41 40" fill="none" xmlns="http://www.w3.org/2000/svg">
<path fill-rule="evenodd" clip-rule="evenodd" d="M20.0008 40C8.97527 40 0.00305176 31.0281 0.00305176 19.9989C0.00305176 8.97418 8.97527 0 20.0008 0C31.0297 0 40.0031 8.97418 40.0031 19.9989C40.0031 31.0281 31.0297 40 20.0008 40ZM31.3773 17.6658V13.0245C31.3773 10.597 29.4063 8.62646 26.9792 8.62646H13.0236C10.5999 8.62646 8.62891 10.597 8.62891 13.0245V26.9804C8.62891 29.4033 10.5999 31.3738 13.0236 31.3738H26.9792C29.4063 31.3738 31.3773 29.4033 31.3773 26.9804V17.6658ZM26.9792 29.1568H13.0235C11.8185 29.1568 10.8445 28.1835 10.8445 26.9806V17.666H14.2388C13.9473 18.3857 13.7826 19.1762 13.7826 19.9987C13.7826 23.428 16.571 26.221 20.0008 26.221C23.4351 26.221 26.2235 23.428 26.2235 19.9987C26.2235 19.1762 26.0554 18.3857 25.7639 17.666H29.1582V26.9806C29.1582 28.1835 28.183 29.1568 26.9792 29.1568ZM24.887 11.2582L28.2424 11.2456H28.7454V15.101L24.9018 15.1124L24.887 11.2582ZM20.0007 24.0024C17.7943 24.0024 15.9971 22.2089 15.9971 19.9985C16.0005 19.128 16.2795 18.3238 16.7562 17.6659C17.4833 16.6549 18.6677 15.998 20.0007 15.998C21.3383 15.998 22.5227 16.6583 23.2498 17.6659C23.722 18.3238 24.0055 19.128 24.0055 19.9985C24.0055 22.2089 22.2072 24.0024 20.0007 24.0024Z" fill="white"/>
</svg>
