<svg width="18" height="18" viewBox="0 0 18 18" fill="none" xmlns="http://www.w3.org/2000/svg">
<path d="M15.7722 11.523C14.7844 11.523 13.8146 11.3686 12.8955 11.0648C12.4452 10.9112 11.8915 11.0521 11.6167 11.3344L9.80265 12.7038C7.69889 11.5808 6.40301 10.2854 5.29536 8.19743L6.62447 6.43066C6.96978 6.08581 7.09364 5.58206 6.94524 5.1094C6.64022 4.18552 6.48528 3.21613 6.48528 2.22797C6.48532 1.51411 5.90456 0.93335 5.19074 0.93335H2.22792C1.51411 0.93335 0.93335 1.51411 0.93335 2.22792C0.93335 10.4101 7.58995 17.0667 15.7722 17.0667C16.486 17.0667 17.0667 16.4859 17.0667 15.7721V12.8176C17.0667 12.1038 16.4859 11.523 15.7722 11.523Z" fill="#3956FB"/>
</svg>
