<svg width="84" height="84" viewBox="0 0 84 84" fill="none" xmlns="http://www.w3.org/2000/svg">
<path fill-rule="evenodd" clip-rule="evenodd" d="M41.9999 0.333313C18.9999 0.333313 0.333252 19 0.333252 42C0.333252 65 18.9999 83.6667 41.9999 83.6667C64.9999 83.6667 83.6666 65 83.6666 42C83.6666 19 64.9999 0.333313 41.9999 0.333313ZM33.6666 60.75L58.6666 42L33.6666 23.25V60.75ZM8.66659 42C8.66659 60.375 23.6249 75.3333 41.9999 75.3333C60.3749 75.3333 75.3333 60.375 75.3333 42C75.3333 23.625 60.3749 8.66665 41.9999 8.66665C23.6249 8.66665 8.66659 23.625 8.66659 42Z" fill="white"/>
</svg>
