<svg width="22" height="23" viewBox="0 0 22 23" fill="none" xmlns="http://www.w3.org/2000/svg">
<g clip-path="url(#clip0_77:53)">
<path d="M21.9964 10.2305C21.9777 10.0523 21.8861 9.88987 21.7433 9.78172L20.0006 8.46168L20.6347 6.36953C20.6866 6.19808 20.6653 6.0128 20.5757 5.85769C20.4862 5.70257 20.3364 5.59145 20.162 5.55072L18.0329 5.05361L17.7612 2.88446C17.7389 2.70674 17.644 2.54613 17.4991 2.44085C17.3543 2.33554 17.1723 2.29502 16.9963 2.3287L14.8493 2.74052L13.7186 0.869443C13.6259 0.716173 13.474 0.608021 13.2988 0.57081C13.1236 0.533556 12.9407 0.570509 12.7938 0.672861L11 1.92239L9.20606 0.672861C9.05906 0.570509 8.87628 0.533556 8.70105 0.57081C8.52582 0.608064 8.37389 0.71613 8.28124 0.869486L7.1507 2.7406L5.00364 2.32879C4.82776 2.29515 4.64571 2.33562 4.50077 2.44094C4.35588 2.54626 4.26101 2.70679 4.23875 2.88455L3.96697 5.0537L1.83796 5.5508C1.66351 5.59154 1.51376 5.70265 1.42417 5.85777C1.33458 6.01293 1.31327 6.19817 1.36522 6.36957L1.99918 8.46176L0.25667 9.78176C0.113885 9.88992 0.0222756 10.0523 0.00354125 10.2305C-0.0151501 10.4086 0.0407092 10.5866 0.157885 10.722L1.58793 12.3755L0.532873 14.2902C0.446463 14.4471 0.428802 14.6328 0.484146 14.8031C0.53949 14.9734 0.662896 15.1133 0.82506 15.1894L2.80403 16.1182L2.61887 18.2965C2.60371 18.475 2.66309 18.6518 2.78297 18.785C2.90281 18.9181 3.07245 18.9956 3.2515 18.9992L5.43732 19.0428L6.15408 21.108C6.21282 21.2772 6.33897 21.4147 6.5026 21.4875C6.66627 21.5603 6.85275 21.5622 7.01779 21.4926L9.03238 20.6434L10.5273 22.2386C10.6498 22.3693 10.8209 22.4435 11 22.4435C11.1792 22.4435 11.3503 22.3693 11.4728 22.2386L12.9677 20.6434L14.9822 21.4926C15.1472 21.5621 15.3337 21.5603 15.4974 21.4875C15.661 21.4146 15.7872 21.2773 15.8459 21.1081L16.5628 19.0428L18.7485 18.9992C18.9276 18.9956 19.0972 18.9181 19.217 18.785C19.3369 18.6518 19.3963 18.4751 19.3811 18.2965L19.196 16.1182L21.1751 15.1894C21.3372 15.1133 21.4606 14.9734 21.516 14.8031C21.5713 14.6328 21.5537 14.4471 21.4672 14.2902L20.412 12.3755L21.8422 10.722C21.9593 10.5866 22.0151 10.4086 21.9964 10.2305ZM19.0593 12.6057L19.9985 14.3102L18.2368 15.137C17.9913 15.2522 17.8435 15.5082 17.8665 15.7784L18.0314 17.7174L16.0856 17.7562C15.8145 17.7617 15.5754 17.9353 15.4865 18.1915L14.8483 20.0301L13.0551 19.2741C12.8052 19.1687 12.5161 19.2302 12.3307 19.428L11 20.848L9.66922 19.428C9.54414 19.2945 9.37188 19.2231 9.19631 19.2231C9.11166 19.2231 9.02615 19.2397 8.94481 19.274L7.15147 20.03L6.51338 18.1915C6.42444 17.9353 6.1854 17.7615 5.91423 17.7562L3.96839 17.7174L4.13322 15.7783C4.15621 15.5081 4.00844 15.2521 3.76296 15.1369L2.00133 14.31L2.94054 12.6055C3.07142 12.368 3.04048 12.0741 2.86315 11.869L1.59012 10.3971L3.14137 9.22205C3.35755 9.0583 3.44886 8.77728 3.37022 8.51771L2.80587 6.65523L4.70109 6.21274C4.96518 6.15108 5.16288 5.93142 5.19665 5.66235L5.43856 3.73142L7.34986 4.09799C7.61618 4.14912 7.88615 4.02885 8.0264 3.79673L9.03281 2.13113L10.6297 3.24342C10.8523 3.39841 11.1478 3.39841 11.3703 3.24342L12.9672 2.13113L13.9737 3.79677C14.1139 4.02885 14.3837 4.14912 14.6502 4.09799L16.5615 3.73142L16.8034 5.66235C16.8371 5.93142 17.0349 6.15108 17.299 6.21274L19.1942 6.65523L18.6297 8.51767C18.5511 8.7772 18.6424 9.0583 18.8585 9.22205L20.4099 10.3971L19.1368 11.869C18.9593 12.0742 18.9283 12.3682 19.0593 12.6057Z" fill="white"/>
<path d="M13.5399 9.65389C13.2869 9.40085 12.8766 9.40085 12.6236 9.65389L10.306 11.9715L9.3762 11.0417C9.1232 10.7887 8.71298 10.7888 8.45998 11.0417C8.20702 11.2947 8.20702 11.705 8.46002 11.958L9.84795 13.3459C9.97445 13.4724 10.1403 13.5356 10.306 13.5356C10.4719 13.5356 10.6377 13.4723 10.7641 13.3459L13.5399 10.5701C13.7929 10.3172 13.7929 9.90689 13.5399 9.65389Z" fill="white"/>
</g>
<defs>
<clipPath id="clip0_77:53">
<rect width="22" height="22" fill="white" transform="translate(0 0.5)"/>
</clipPath>
</defs>
</svg>
