<svg width="40" height="40" viewBox="0 0 40 40" fill="none" xmlns="http://www.w3.org/2000/svg">
<path fill-rule="evenodd" clip-rule="evenodd" d="M20 40C8.95429 40 0 31.0457 0 20C0 8.95429 8.95429 0 20 0C31.0457 0 40 8.95429 40 20C40 31.0457 31.0457 40 20 40ZM20.0001 7.41113C13.0447 7.41228 7.4104 13.0443 7.4104 20.002C7.4104 26.9563 13.0447 32.5894 20.0001 32.5894C26.9555 32.5894 32.5898 26.9563 32.5898 20.002C32.5898 13.0443 26.9555 7.41228 20.0001 7.41113ZM25.5577 28.0845C25.0617 25.6491 24.4297 23.4399 23.7417 21.4765C24.3828 21.3828 25.0594 21.3325 25.7577 21.3325H25.7977C26.96 21.3325 28.256 21.4777 29.6423 21.7965C29.1657 24.3977 27.6526 26.6354 25.5577 28.0845ZM25.7807 19.0898C24.7738 19.0898 23.831 19.1858 22.9327 19.3378C22.7247 18.8087 22.5052 18.299 22.2847 17.811C24.2595 16.9412 26.1715 15.699 27.7178 13.939C28.9452 15.4978 29.7098 17.4304 29.8081 19.5355C28.3841 19.2384 27.0367 19.0898 25.7978 19.0898H25.7807ZM21.3016 15.7826C20.0124 13.2878 18.7667 11.5049 17.9119 10.4135C18.5873 10.2649 19.2844 10.1792 19.9999 10.1792C22.3142 10.1792 24.4444 10.9906 26.1222 12.3403C24.8399 13.8775 23.1416 14.9975 21.3016 15.7826ZM11.408 17.6377C11.3565 17.6377 11.3074 17.6377 11.2583 17.6355H11.256C10.9508 17.6355 10.6903 17.6286 10.4708 17.6172C11.1748 14.8012 13.1051 12.464 15.6617 11.2012C16.3394 12.0103 17.7097 13.7795 19.1657 16.5463C16.2011 17.4297 13.2148 17.6377 11.408 17.6377ZM11.2594 19.8772C13.2343 19.8657 16.68 19.7035 20.1714 18.5972C20.3588 19.0143 20.5486 19.4475 20.7371 19.8989C18.4034 20.6817 16.5691 21.9195 15.2068 23.1526C13.8994 24.3515 13.016 25.5332 12.4994 26.3195C11.0526 24.604 10.1783 22.4109 10.1771 20.0017C10.1771 19.9606 10.1783 19.9035 10.1863 19.8555C10.4617 19.8737 10.8251 19.8772 11.2571 19.8772H11.2594ZM21.5462 21.9902C22.2914 24.0839 22.9725 26.4862 23.4891 29.1765C22.4045 29.5925 21.2274 29.8302 19.9999 29.8302C17.8125 29.8302 15.7976 29.0999 14.1691 27.8897C14.5154 27.3217 15.2548 26.2188 16.4456 25.0862C17.6639 23.9114 19.3474 22.7068 21.5462 21.9902Z" fill="white"/>
</svg>
