<svg width="40" height="40" viewBox="0 0 40 40" fill="none" xmlns="http://www.w3.org/2000/svg">
<path fill-rule="evenodd" clip-rule="evenodd" d="M20.0017 40C8.95352 40 0 31.0462 0 20.0011C0 8.95378 8.95352 0 20.0017 0C31.0465 0 40 8.95378 40 20.0011C40 31.0462 31.0465 40 20.0017 40ZM15.5369 6.78271L14.5062 10.7448L13.4331 6.78271H11.8424C12.1624 7.71752 12.4938 8.65689 12.8126 9.59398C13.2971 11.003 13.5988 12.0636 13.7371 12.7869V16.8747H15.2478V12.7869L17.066 6.78271H15.5369ZM21.1044 11.8069C21.1044 11.0046 20.9662 10.415 20.6805 10.0355C20.3045 9.52129 19.7731 9.26416 19.092 9.26416C18.4121 9.26416 17.8807 9.52129 17.5036 10.0355C17.2133 10.4172 17.0785 11.0046 17.0785 11.8069V14.441C17.0785 15.2398 17.2133 15.8329 17.5036 16.21C17.8807 16.7232 18.4121 16.9803 19.092 16.9803C19.7731 16.9803 20.3045 16.7232 20.6805 16.21C20.9662 15.8329 21.1044 15.2398 21.1044 14.441V11.8069ZM26.1429 9.35449H24.7807V15.1027C24.479 15.529 24.1933 15.7404 23.9191 15.7404C23.7374 15.7404 23.63 15.633 23.5991 15.4204C23.5831 15.377 23.5831 15.2113 23.5831 14.8913V9.35449H22.2244V15.3004C22.2244 15.8318 22.2712 16.1918 22.3444 16.4204C22.4826 16.7998 22.7843 16.9792 23.2243 16.9792C23.7214 16.9792 24.2368 16.6775 24.7807 16.0547V16.8752H26.1429V9.35449ZM30.7723 20.1669C30.4992 18.9796 29.5278 18.1053 28.3588 17.9728C25.5921 17.6653 22.7924 17.6631 20.0029 17.6653C17.2157 17.6631 14.4148 17.6653 11.6471 17.9728C10.4803 18.1053 9.50896 18.9796 9.23812 20.1669C8.84844 21.8571 8.84387 23.7016 8.84387 25.442C8.84387 27.1802 8.84387 29.027 9.23127 30.7149C9.50553 31.9023 10.4746 32.7765 11.6436 32.909C14.4103 33.2176 17.2112 33.2187 19.9995 33.2176C22.789 33.2187 25.5876 33.2176 28.3553 32.909C29.5244 32.7765 30.4934 31.9023 30.7666 30.7149C31.1562 29.027 31.1562 27.1802 31.1562 25.442C31.1562 23.7016 31.1597 21.8571 30.7723 20.1669ZM29.1507 29.3532C28.777 29.8949 28.2251 30.1612 27.52 30.1612C26.8149 30.1612 26.2767 29.9075 25.887 29.3978C25.6013 29.0264 25.4562 28.439 25.4562 27.6493V25.0415C25.4562 24.2461 25.5853 23.6656 25.871 23.2873C26.2607 22.7776 26.7966 22.5239 27.4857 22.5239C28.1634 22.5239 28.7005 22.7776 29.0764 23.2873C29.3598 23.6656 29.4935 24.2461 29.4935 25.0415V26.582H26.7966V27.903C26.7966 28.591 27.024 28.9338 27.4857 28.9338C27.8194 28.9338 28.0114 28.7544 28.0891 28.3944C28.1017 28.3213 28.1188 28.0208 28.1188 27.4814H29.4935V27.6768C29.4935 28.1133 29.4775 28.4104 29.4661 28.5464C29.4204 28.8447 29.3141 29.1155 29.1507 29.3532ZM26.799 25.4613H28.1474V24.7745C28.1474 24.0842 27.9211 23.7402 27.4743 23.7402C27.0241 23.7402 26.799 24.0842 26.799 24.7745V25.4613ZM23.1923 30.1626C22.7123 30.1626 22.2483 29.8952 21.7969 29.3387V30.0609H20.4485V20.0718H21.7969V23.3333C22.2323 22.7973 22.6963 22.5254 23.1923 22.5254C23.7271 22.5254 24.0893 22.8088 24.2687 23.3676C24.359 23.667 24.4047 24.1584 24.4047 24.8635V27.8268C24.4047 28.5136 24.359 29.0096 24.2687 29.325C24.0893 29.8781 23.7271 30.1626 23.1923 30.1626ZM23.0563 24.7562C23.0563 24.0842 22.8586 23.7402 22.4712 23.7402C22.2484 23.7402 22.0233 23.8465 21.797 24.0682V28.604C22.0233 28.8302 22.2484 28.9354 22.4712 28.9354C22.8598 28.9354 23.0563 28.604 23.0563 27.9331V24.7562ZM17.9333 29.2465C17.3973 29.8613 16.8888 30.1619 16.3928 30.1619C15.9586 30.1619 15.6592 29.9836 15.5232 29.6076C15.4489 29.3825 15.4032 29.0271 15.4032 28.5014V22.6172H16.7517V28.0957C16.7517 28.4111 16.7517 28.5757 16.7642 28.6191C16.7985 28.8294 16.9002 28.9345 17.0796 28.9345C17.3516 28.9345 17.6339 28.7266 17.9333 28.3037V22.6172H19.284V30.0602H17.9333V29.2465ZM13.5931 30.0609H12.0926V21.4763H10.5065V20.0718H15.2078V21.4763H13.5931V30.0609ZM19.092 15.7404C18.6521 15.7404 18.4407 15.393 18.4407 14.6947V11.5326C18.4407 10.8378 18.6521 10.4893 19.092 10.4893C19.5297 10.4893 19.7411 10.8378 19.7411 11.5326V14.6947C19.7411 15.393 19.5297 15.7404 19.092 15.7404Z" fill="white"/>
</svg>
